PathFileType	4	(X/Y/Z)	HSS_squat5.trc
DataRate	CameraRate	NumFrames	NumMarkers	Units	OrigDataRate	OrigDataStartFrame	OrigNumFrames
120.0	120.0	7	44	mm	120.0	123	980
Frame#	Time		R.Shoulder		Offset		L.Shoulder		R.Elbow		R.Wrist.Radial		R.Wrist		R.Hand		L.Elbow		L.Wrist.Radial		L.Wrist		L.Hand		R.Hip		V.Sacral		L.PSIS		L.Hip		R.Thigh.Upper		R.Thigh.Front		R.Thigh.Rear		X.Shell.Lower.Thigh.Right		R.Knee.Lateral		R.Shank.Upper		R.Shank.Front		R.Shank.Rear		X.Shell.Lower.Shank.Right		R.Ankle.Lateral		R.Heel		R.Toe		L.Thigh.Upper		L.Thigh.Front		L.Thigh.Rear		X.Shell.Lower.Thigh.Left		L.Knee.Lateral		L.Shank.Upper		L.Shank.Front		L.Shank.Rear		X.Shell.Lower.Shank.Left		L.Ankle.Lateral		L.Heel		L.Toe		R.Troc		L.Troc		R.PSIS		L.ASIS		R.ASIS
			X1	Y1	Z1	X2	Y2	Z2	X3	Y3	Z3	X4	Y4	Z4	X5	Y5	Z5	X6	Y6	Z6	X7	Y7	Z7	X8	Y8	Z8	X9	Y9	Z9	X10	Y10	Z10	X11	Y11	Z11	X12	Y12	Z12	X13	Y13	Z13	X14	Y14	Z14	X15	Y15	Z15	X16	Y16	Z16	X17	Y17	Z17	X18	Y18	Z18	X19	Y19	Z19	X20	Y20	Z20	X21	Y21	Z21	X22	Y22	Z22	X23	Y23	Z23	X24	Y24	Z24	X25	Y25	Z25	X26	Y26	Z26	X27	Y27	Z27	X28	Y28	Z28	X29	Y29	Z29	X30	Y30	Z30	X31	Y31	Z31	X32	Y32	Z32	X33	Y33	Z33	X34	Y34	Z34	X35	Y35	Z35	X36	Y36	Z36	X37	Y37	Z37	X38	Y38	Z38	X39	Y39	Z39	X40	Y40	Z40	X41	Y41	Z41	X42	Y42	Z42	X43	Y43	Z43	X44	Y44	Z44

123	1.01667	139.28267	1482.87842	-77.25062	-142.05034	1385.05688	28.21209	-190.55850	1499.15723	-86.85453	307.75421	1329.69995	-351.39539	83.46597	1391.34912	-447.08243	105.06108	1425.98401	-511.94412	18.25180	1432.42041	-531.04657	-363.22595	1359.93481	-369.42319	-115.14979	1378.60974	-469.14090	-147.30714	1426.25220	-511.73196	-59.38089	1414.53308	-521.59955	123.61053	1032.77380	-137.32231	-28.71759	1020.36041	-22.09408	-69.20429	1025.68347	-25.16361	-175.22501	1032.71851	-144.34943	178.54625	696.55701	-171.63205	167.36124	657.28937	-204.78198	189.81116	659.36438	-147.07732	176.39493	624.82776	-174.66661	169.72141	518.68469	-111.04308	230.77229	379.09644	-91.37576	213.41075	333.76495	-120.36005	220.51512	341.24524	-60.18815	217.75204	300.68723	-84.10722	190.00766	71.97305	-81.23497	142.24959	33.08729	-41.34219	201.82066	31.59621	-237.29222	-221.76408	696.04541	-188.69963	-204.15811	644.57043	-207.48466	-238.76158	661.67371	-157.92947	-229.87683	625.81219	-183.46486	-217.25397	510.42038	-114.35571	-274.70682	316.17569	-79.69356	-261.36493	291.01004	-108.26129	-263.99237	275.83423	-49.88536	-269.85580	245.67938	-72.99426	-240.87315	75.64979	-94.65852	-196.68954	34.57336	-41.54193	-241.42635	32.60120	-240.70927	161.50145	900.08850	-145.99869	-213.71005	904.18097	-144.14952	14.63564	1022.64288	-21.90746	-132.60040	999.33417	-210.12102	92.04924	996.31042	-199.76637
124	1.02500	139.26924	1482.86499	-77.22961	-142.05621	1385.04907	28.24026	-190.58261	1499.13196	-86.84416	307.76889	1329.72778	-351.34482	83.47892	1391.30835	-447.03757	105.05767	1425.95459	-511.89862	18.25627	1432.35706	-530.99457	-363.33786	1360.10583	-369.39825	-115.25848	1378.59521	-469.10620	-147.34692	1426.27344	-511.69611	-59.43678	1414.51001	-521.59167	123.61107	1032.76990	-137.27550	-28.74249	1020.36670	-22.05987	-69.19628	1025.68872	-25.13559	-175.25679	1032.72693	-144.31279	178.53758	696.57343	-171.59178	167.33517	657.28638	-204.74905	189.78201	659.35107	-147.03650	176.38696	624.81232	-174.62277	169.74432	518.67694	-111.01398	230.76236	379.09943	-91.36301	213.42410	333.76181	-120.34180	220.52702	341.24521	-60.18731	217.75696	300.68292	-84.07142	190.02098	71.98268	-81.24828	142.25925	33.07183	-41.33437	201.81517	31.60227	-237.30656	-221.73784	696.03375	-188.63182	-204.15529	644.55597	-207.44054	-238.77707	661.66437	-157.88258	-229.88116	625.79846	-183.46147	-217.26160	510.41528	-114.30305	-274.71194	316.19092	-79.66953	-261.37320	291.00656	-108.23845	-263.99072	275.82721	-49.85741	-269.86166	245.68037	-72.96078	-240.87529	75.62305	-94.65340	-196.69910	34.56211	-41.57328	-241.42766	32.62445	-240.70279	161.48557	900.06866	-145.96626	-213.71468	904.18365	-144.09628	14.62016	1022.65137	-21.88964	-132.60397	999.34595	-210.11708	92.07259	996.32361	-199.71169
125	1.03333	139.23245	1482.90295	-77.22651	-142.05325	1385.02966	28.26619	-190.59732	1499.11060	-86.81327	307.78830	1329.79663	-351.33258	83.49739	1391.32129	-447.00635	105.02911	1425.94507	-511.89505	18.24502	1432.30872	-530.93933	-363.40958	1360.25183	-369.39099	-115.25533	1378.61572	-469.09943	-147.39079	1426.27808	-511.68048	-59.50621	1414.44617	-521.58270	123.60443	1032.75061	-137.23808	-28.75781	1020.37494	-22.04994	-69.19904	1025.70605	-25.11092	-175.27234	1032.72400	-144.28780	178.54462	696.57849	-171.59167	167.35443	657.28839	-204.72926	189.77180	659.35522	-146.99623	176.37247	624.81531	-174.59894	169.68884	518.68408	-110.98936	230.77530	379.11307	-91.35967	213.41025	333.76743	-120.33376	220.51427	341.24390	-60.18058	217.75836	300.68826	-84.06318	190.00398	71.99129	-81.24709	142.26085	33.08777	-41.37045	201.84140	31.62794	-237.30133	-221.74184	696.03406	-188.58304	-204.16455	644.57245	-207.37407	-238.78445	661.67334	-157.84639	-229.89462	625.79724	-183.39742	-217.24709	510.41766	-114.24969	-274.71490	316.19232	-79.63832	-261.36499	291.02103	-108.19460	-263.98441	275.82004	-49.85671	-269.86111	245.68611	-72.92484	-240.87685	75.64595	-94.62843	-196.68806	34.56443	-41.54156	-241.42578	32.61219	-240.69447	161.50266	900.07599	-145.88704	-213.71426	904.18787	-144.07356	14.61569	1022.65802	-21.83612	-132.60500	999.35083	-210.05687	92.07867	996.31445	-199.70457
126	1.04167	139.22762	1482.90222	-77.22842	-142.05905	1385.01843	28.28524	-190.61151	1499.09497	-86.80363	307.80835	1329.86804	-351.29971	83.44424	1391.23694	-446.99857	104.98412	1425.93555	-511.84457	18.21347	1432.23987	-530.93280	-363.54422	1360.42224	-369.33618	-115.34602	1378.59180	-469.07721	-147.45804	1426.27100	-511.66464	-59.56535	1414.39746	-521.49719	123.61583	1032.75415	-137.15279	-28.77525	1020.39545	-22.00824	-69.20729	1025.71655	-25.08673	-175.29585	1032.72668	-144.25043	178.52722	696.56781	-171.54175	167.33076	657.28442	-204.69040	189.77066	659.36926	-146.94916	176.36940	624.80688	-174.57526	169.70743	518.69635	-110.97187	230.75903	379.10928	-91.35437	213.40756	333.76718	-120.32226	220.51930	341.24677	-60.18728	217.74629	300.69321	-84.08843	190.00630	71.99892	-81.25639	142.25186	33.07362	-41.35629	201.82181	31.62925	-237.32837	-221.76979	696.04083	-188.50327	-204.19308	644.56464	-207.31650	-238.81404	661.66870	-157.72659	-229.92064	625.80536	-183.32043	-217.25575	510.43069	-114.20158	-274.72931	316.18073	-79.59731	-261.38397	291.03583	-108.17607	-263.98264	275.82312	-49.80866	-269.85876	245.67586	-72.89948	-240.87650	75.65122	-94.64114	-196.68208	34.55298	-41.56719	-241.44305	32.62724	-240.71036	161.48177	900.08832	-145.87764	-213.72873	904.18597	-144.02686	14.62055	1022.66315	-21.83296	-132.63029	999.35913	-210.03049	92.07202	996.32050	-199.64313
127	1.05000	139.19882	1482.88953	-77.16445	-142.07797	1385.02222	28.31473	-190.62196	1499.08545	-86.79637	307.80505	1329.94653	-351.24860	83.37875	1391.20544	-446.97247	104.91661	1425.90344	-511.81949	18.16242	1432.17322	-530.91895	-363.64850	1360.59802	-369.34937	-115.45409	1378.59888	-469.06512	-147.49377	1426.27612	-511.64246	-59.66644	1414.42651	-521.47968	123.59364	1032.76001	-137.12851	-28.77237	1020.40173	-21.99930	-69.20770	1025.72241	-25.03528	-175.30656	1032.72986	-144.20998	178.51823	696.56873	-171.52251	167.35269	657.25671	-204.65053	189.76051	659.36066	-146.94786	176.38536	624.81604	-174.56468	169.70091	518.66620	-110.93613	230.76251	379.09094	-91.33208	213.41025	333.76410	-120.32168	220.51279	341.23376	-60.17892	217.74640	300.68921	-84.08651	190.01767	71.97891	-81.25786	142.23953	33.07185	-41.35241	201.82397	31.60839	-237.31770	-221.78795	696.03229	-188.43134	-204.18643	644.54309	-207.20738	-238.83751	661.68561	-157.65785	-229.93463	625.80194	-183.25305	-217.24374	510.42874	-114.16216	-274.71085	316.18958	-79.53169	-261.37402	291.04108	-108.12171	-263.98645	275.82098	-49.78556	-269.86438	245.67580	-72.84747	-240.88599	75.64855	-94.63425	-196.68938	34.56581	-41.55647	-241.45180	32.62108	-240.70279	161.47655	900.08356	-145.83974	-213.72676	904.18616	-143.94576	14.62052	1022.67065	-21.77482	-132.64064	999.35010	-209.99448	92.02882	996.33478	-199.62996
128	1.05833	139.17741	1482.91003	-77.17479	-142.09406	1385.04260	28.32756	-190.63625	1499.07410	-86.79580	307.79797	1330.04419	-351.25717	83.36319	1391.19080	-446.92822	104.85123	1425.89929	-511.78610	18.10958	1432.11145	-530.84320	-363.73599	1360.74719	-369.34210	-115.55113	1378.62219	-469.03961	-147.53650	1426.28833	-511.63312	-59.80618	1414.37634	-521.40753	123.58446	1032.75781	-137.10484	-28.79662	1020.40417	-21.85694	-69.20043	1025.74524	-24.97756	-175.31616	1032.73767	-144.12485	178.51143	696.57227	-171.49704	167.35721	657.28229	-204.61490	189.74898	659.34021	-146.86935	176.38614	624.79810	-174.53706	169.68292	518.68005	-110.89089	230.75743	379.09073	-91.28349	213.41547	333.75940	-120.31980	220.49634	341.24329	-60.16146	217.75421	300.68634	-84.05193	190.01462	71.98457	-81.25580	142.25117	33.09052	-41.33686	201.81081	31.60328	-237.32071	-221.81001	696.02502	-188.32150	-204.21405	644.54114	-207.16656	-238.84734	661.68109	-157.58009	-229.95238	625.80273	-183.18236	-217.24855	510.42880	-114.10227	-274.69730	316.18005	-79.53668	-261.37857	291.03421	-108.08602	-263.96124	275.81830	-49.74499	-269.86374	245.67688	-72.81781	-240.88837	75.64539	-94.63480	-196.69159	34.54519	-41.55802	-241.43683	32.61899	-240.67885	161.44719	900.09479	-145.82881	-213.72754	904.19519	-143.86916	14.61201	1022.67303	-21.75431	-132.66902	999.36664	-209.93105	92.02274	996.32654	-199.58029
129	1.06667	139.14561	1482.90710	-77.10571	-142.12059	1385.03882	28.32801	-190.65555	1499.07837	-86.76705	307.81409	1330.11890	-351.26178	83.34877	1391.17151	-446.91922	104.79205	1425.88770	-511.78784	18.05170	1432.04541	-530.81079	-363.88663	1360.97607	-369.31290	-115.63516	1378.61865	-469.05466	-147.58240	1426.31140	-511.61032	-59.89243	1414.36426	-521.35065	123.57021	1032.78479	-137.07478	-28.82284	1020.41113	-21.83622	-69.20892	1025.74951	-24.94520	-175.32681	1032.72986	-144.09187	178.53047	696.56927	-171.44038	167.34061	657.26685	-204.57108	189.75252	659.34729	-146.82195	176.38608	624.81036	-174.51749	169.68599	518.66888	-110.88101	230.76184	379.10260	-91.31002	213.38516	333.75061	-120.27450	220.49986	341.23657	-60.14484	217.74582	300.68057	-84.02402	189.99561	71.98339	-81.23981	142.24295	33.08369	-41.34829	201.82060	31.59357	-237.29247	-221.83040	696.02240	-188.24345	-204.23039	644.55426	-207.11275	-238.85141	661.67139	-157.52875	-229.95074	625.80029	-183.12294	-217.24666	510.42227	-114.04240	-274.70026	316.18335	-79.48530	-261.35925	291.02621	-108.07816	-263.94852	275.80118	-49.68729	-269.85461	245.67752	-72.80366	-240.87308	75.63750	-94.64352	-196.70386	34.55571	-41.52970	-241.42935	32.62248	-240.66490	161.43184	900.08972	-145.77568	-213.73720	904.18359	-143.83290	14.59032	1022.67883	-21.66812	-132.68443	999.34979	-209.87912	92.00195	996.34259	-199.56181
